
<svg width="264px" height="188px" viewBox="0 0 264 188" version="1.1" xmlns="http://www.w3.org/2000/svg" xmlns:xlink="http://www.w3.org/1999/xlink">
    <g id="Templates-模板页面" stroke="none" stroke-width="1" fill="none" fill-rule="evenodd">
        <g id="分析页" transform="translate(-280.000000, -88.000000)">
            <g id="Group-16" transform="translate(280.000000, 88.000000)">
                <path d="M2,-9.58819508e-05 L262,-9.58819508e-05 C263.104569,-9.58819508e-05 264,0.895334618 264,1.99990412 L264,186 C264,187.104569 263.104569,188 262,188 L2,188 C0.8954305,188 1.3527075e-16,187.104569 0,186 L0,1.99990412 C-1.3527075e-16,0.895334618 0.8954305,-9.58819508e-05 2,-9.58819508e-05 Z" id="Rectangle-5-Copy-8" fill="#FFFFFF"></path>
                <path d="M236.513672,24.9365234 C237.589198,25.5608755 238.439124,26.4108019 239.063477,27.4863281 C239.687829,28.5618543 240,29.7330666 240,31 C240,32.2669334 239.687829,33.4381457 239.063477,34.5136719 C238.439124,35.5891981 237.589198,36.4391245 236.513672,37.0634766 C235.438146,37.6878286 234.266933,38 233,38 C231.733067,38 230.561854,37.6878286 229.486328,37.0634766 C228.410802,36.4391245 227.560876,35.5891981 226.936523,34.5136719 C226.312171,33.4381457 226,32.2669334 226,31 C226,29.7330666 226.312171,28.5618543 226.936523,27.4863281 C227.560876,26.4108019 228.410802,25.5608755 229.486328,24.9365234 C230.561854,24.3121714 231.733067,24 233,24 C234.266933,24 235.438146,24.3121714 236.513672,24.9365234 Z M237.251953,35.2519531 C237.807945,34.6959608 238.240884,34.0579463 238.550781,33.3378906 C238.860679,32.5996057 239.015625,31.8203166 239.015625,31 C239.015625,30.1796834 238.856121,29.4003943 238.537109,28.6621094 C238.236327,27.9420537 237.807945,27.3040392 237.251953,26.7480469 C236.695961,26.1920545 236.057946,25.7591161 235.337891,25.4492188 C234.599606,25.1393214 233.820317,24.984375 233,24.984375 C232.179683,24.984375 231.400394,25.1438786 230.662109,25.4628906 C229.942054,25.7636734 229.304039,26.1920545 228.748047,26.7480469 C228.192055,27.3040392 227.759116,27.9420537 227.449219,28.6621094 C227.139321,29.4003943 226.984375,30.1796834 226.984375,31 C226.984375,31.8203166 227.143879,32.5996057 227.462891,33.3378906 C227.763673,34.0579463 228.192055,34.6959608 228.748047,35.2519531 C229.304039,35.8079455 229.942054,36.2408839 230.662109,36.5507812 C231.400394,36.8606786 232.179683,37.015625 233,37.015625 C233.820317,37.015625 234.599606,36.8561214 235.337891,36.5371094 C236.057946,36.2363266 236.695961,35.8079455 237.251953,35.2519531 Z M234.613281,33.6523438 C234.750001,33.6523438 234.86621,33.7001948 234.961914,33.7958984 C235.057618,33.891602 235.105469,34.0078118 235.105469,34.1445312 C235.105469,34.2812507 235.057618,34.3974605 234.961914,34.4931641 C234.86621,34.5888677 234.750001,34.6367188 234.613281,34.6367188 L231.304688,34.6367188 C231.167968,34.6367188 231.051758,34.5888677 230.956055,34.4931641 C230.860351,34.3974605 230.8125,34.2812507 230.8125,34.1445312 C230.8125,34.0078118 230.860351,33.891602 230.956055,33.7958984 C231.051758,33.7001948 231.167968,33.6523438 231.304688,33.6523438 L232.466797,33.6523438 L232.466797,29.359375 L231.646484,29.359375 C231.509765,29.359375 231.393555,29.3092453 231.297852,29.2089844 C231.202148,29.1087235 231.154297,28.9947923 231.154297,28.8671875 C231.154297,28.7304681 231.202148,28.6142583 231.297852,28.5185547 C231.393555,28.4228511 231.509765,28.375 231.646484,28.375 L232.958984,28.375 C233.095704,28.375 233.211914,28.4228511 233.307617,28.5185547 C233.403321,28.6142583 233.451172,28.7304681 233.451172,28.8671875 L233.451172,33.6523438 L234.613281,33.6523438 Z M232.610352,27.3564453 C232.514648,27.2607417 232.466797,27.1468106 232.466797,27.0146484 C232.466797,26.8824863 232.514648,26.7662765 232.610352,26.6660156 C232.706055,26.5657547 232.822265,26.515625 232.958984,26.515625 C233.095704,26.515625 233.211914,26.5657547 233.307617,26.6660156 C233.403321,26.7662765 233.451172,26.8824863 233.451172,27.0146484 C233.451172,27.1468106 233.403321,27.2607417 233.307617,27.3564453 C233.211914,27.4521489 233.095704,27.5 232.958984,27.5 C232.822265,27.5 232.706055,27.4521489 232.610352,27.3564453 Z" id="info-circle-o---anticon" fill-opacity="0.45" fill="#000000"></path>
                <rect id="Rectangle-26" fill="#E8E8E8" x="24" y="146" width="216" height="1"></rect>
                <text id="总销售额-copy" font-family="PingFangSC-Regular, PingFang SC" font-size="14" font-weight="normal" line-spacing="22" fill="#000000" fill-opacity="0.45">
                    <tspan x="24" y="35">总销售额</tspan>
                </text>
                <g id="Group-23" transform="translate(24.000000, 46.000000)" fill="#000000" fill-opacity="0.85">
                    <polygon id="¥" points="0 10 6.65217391 21.0616246 1.82608696 21.0616246 1.82608696 22.6022409 7.56521739 22.6022409 7.56521739 25.6218487 1.82608696 25.6218487 1.82608696 27.162465 7.56521739 27.162465 7.56521739 32 10.4347826 32 10.4347826 27.162465 16.2065217 27.162465 16.2065217 25.6218487 10.4347826 25.6218487 10.4347826 22.6022409 16.2065217 22.6022409 16.2065217 21.0616246 11.3478261 21.0616246 18 10 14.7717391 10 9 20.1064426 3.22826087 10"></polygon>
                    <text id="126,560" font-family="HelveticaNeue, Helvetica Neue" font-size="30" font-weight="normal" line-spacing="38">
                        <tspan x="22" y="29">126,560</tspan>
                    </text>
                </g>
                <g id="Group-27" transform="translate(24.000000, 156.000000)" fill="#000000" font-size="14" font-weight="normal" line-spacing="22">
                    <text id="日均销售额-copy" font-family="PingFangSC-Regular, PingFang SC" fill-opacity="0.65">
                        <tspan x="0" y="15">日均销售额</tspan>
                    </text>
                    <text id="¥-12,423" font-family="HelveticaNeue, Helvetica Neue" fill-opacity="0.85">
                        <tspan x="78" y="13">¥ 12,423</tspan>
                    </text>
                </g>
                <g id="Group-24" transform="translate(24.000000, 104.000000)" font-weight="normal">
                    <text id="周同比" font-family="PingFangSC-Regular, PingFang SC" font-size="14" line-spacing="22" fill="#000000" fill-opacity="0.65">
                        <tspan x="0" y="15">周同比</tspan>
                    </text>
                    <text id="12%" font-family="HelveticaNeue, Helvetica Neue" font-size="14" line-spacing="22" fill="#000000" fill-opacity="0.85">
                        <tspan x="64" y="13">12%</tspan>
                    </text>
                    <text id="caret-up---anticon" font-family="LastResort, .LastResort" font-size="10" fill="#52C41A">
                        <tspan x="50" y="14"></tspan>
                    </text>
                </g>
                <g id="Group-26" transform="translate(142.000000, 104.000000)" font-weight="normal">
                    <text id="-copy" font-family="LastResort, .LastResort" font-size="10" fill="#F5222D">
                        <tspan x="50" y="14"></tspan>
                    </text>
                    <text id="日环比" font-family="PingFangSC-Regular, PingFang SC" font-size="14" line-spacing="22" fill="#000000" fill-opacity="0.65">
                        <tspan x="0" y="15">日环比</tspan>
                    </text>
                    <text id="11%" font-family="HelveticaNeue, Helvetica Neue" font-size="14" line-spacing="22" fill="#000000" fill-opacity="0.85">
                        <tspan x="64" y="13">11%</tspan>
                    </text>
                </g>
            </g>
        </g>
    </g>
</svg>