
<svg width="244px" height="250px" viewBox="0 0 244 250" version="1.1" xmlns="http://www.w3.org/2000/svg" xmlns:xlink="http://www.w3.org/1999/xlink">
    <defs>
        <path d="M116.387239,29.6372806 L116.387239,0.270122571 C80.7012672,0.270122571 48.66929,15.9015236 26.7388706,40.6890205 L48.7192711,60.1461272 C65.2726909,41.4365227 89.4511853,29.6372806 116.387239,29.6372806" id="path-1"></path>
        <path d="M29.6175135,128.199806 C29.6175135,105.22191 38.1890045,84.2504393 52.3014116,68.3006775 L30.321011,48.8435708 C11.6248528,69.9747599 0.268930596,97.7587189 0.268930596,128.200882 L29.6175135,128.200882 L29.6175135,128.199806 Z" id="path-2"></path>
        <path d="M185.81644,66.3011014 L185.810297,66.2949516 C169.329968,48.7512354 145.930211,37.7919922 119.969057,37.7919922 L119.969057,8.4248342 C153.704478,8.4248342 185.363866,23.6977978 207.166748,46.2149339 L207.197051,46.1864423 C227.329763,67.6182456 239.669184,96.4659165 239.669184,128.200882 L210.320601,128.199806 C210.320601,104.249508 201.00934,82.4776922 185.81644,66.3011014 Z" id="path-3"></path>
        <path d="M42.3571063,174.501977 C34.2698409,160.958742 29.617836,145.124601 29.6172986,128.200936 L0.268715623,128.200936 C0.268715623,150.621701 6.43197716,171.599625 17.1462065,189.541292 C26.4727883,205.159249 39.2507537,218.471779 54.4278121,228.429155 L70.4975438,203.854077 C59.0416593,196.337647 49.3969182,186.289926 42.3571063,174.501977" id="path-4"></path>
        <path d="M210.320601,128.200882 C210.320601,149.193326 203.167929,168.513301 191.170314,183.85807 C174.633554,205.009157 148.888985,218.605631 119.969272,218.605631 L119.969272,247.973327 C158.283283,247.973327 192.390283,229.960136 214.298667,201.936869 C230.193734,181.608572 239.669184,156.012267 239.669184,128.200882 L210.320601,128.200882 Z" id="path-5"></path>
        <path d="M70.4974363,203.853862 L54.4277046,228.428939 C73.2566083,240.782086 95.7722904,247.973165 119.969057,247.973165 L119.969057,218.606007 C101.704994,218.606007 84.7098056,213.177743 70.4974363,203.853862" id="path-6"></path>
    </defs>
    <g id="Templates-模板页面" stroke="none" stroke-width="1" fill="none" fill-rule="evenodd">
        <g id="分析页" transform="translate(-900.000000, -918.000000)">
            <g id="Group-22" transform="translate(860.000000, 728.000000)">
                <g id="Group-2" transform="translate(42.000000, 190.000000)">
                    <g id="Fill-1">
                        <use fill="#8543E0" xlink:href="#path-1"></use>
                        <use fill-opacity="0.15" fill="#FFFFFF" xlink:href="#path-1"></use>
                    </g>
                    <g id="Fill-5">
                        <use fill="#F04864" xlink:href="#path-2"></use>
                        <use stroke="#FFFFFF" stroke-width="4" fill-opacity="0.15" fill="#FFFFFF" xlink:href="#path-2"></use>
                    </g>
                    <g id="Combined-Shape">
                        <use fill="#1890FF" xlink:href="#path-3"></use>
                        <use stroke="#FFFFFF" stroke-width="4" fill-opacity="0.15" fill="#FFFFFF" xlink:href="#path-3"></use>
                    </g>
                    <g id="Fill-17">
                        <use fill="#FACC14" xlink:href="#path-4"></use>
                        <use stroke="#FFFFFF" stroke-width="4" fill-opacity="0.15" fill="#FFFFFF" xlink:href="#path-4"></use>
                    </g>
                    <g id="Fill-21">
                        <use fill="#13C2C2" xlink:href="#path-5"></use>
                        <use stroke="#FFFFFF" stroke-width="4" fill-opacity="0.15" fill="#FFFFFF" xlink:href="#path-5"></use>
                    </g>
                    <g id="Fill-25">
                        <use fill="#2FC25B" xlink:href="#path-6"></use>
                        <use stroke="#FFFFFF" stroke-width="4" fill-opacity="0.15" fill="#FFFFFF" xlink:href="#path-6"></use>
                    </g>
                </g>
            </g>
        </g>
    </g>
</svg>