<svg width="211" height="81" xmlns="http://www.w3.org/2000/svg"><g transform="translate(.4)" fill="none" fill-rule="evenodd"><path d="M190 30V5h-37.5a2.5 2.5 0 1 1 0-5h55a2.5 2.5 0 1 1 0 5H205v25h-15zm17.5 5a2.5 2.5 0 1 1 0 5H205v25c0 8.955-8.58 13.969-17.226 14.857A2.51 2.51 0 0 1 185 77.366c0-1.265.928-2.303 2.162-2.491C189.454 74.525 190 73.334 190 70V40h-37.5a2.5 2.5 0 1 1 0-5h55zM100 58.314V70c0 3.095.687 4.424 2.916 4.843 1.198.225 2.084 1.243 2.084 2.462 0 1.54-1.336 2.714-2.834 2.513C94.466 78.79 90 73.44 90 65v-2.449c-3.699 1.077-7.789 1.83-12.255 2.242A2.512 2.512 0 0 1 75 62.299c0-1.395.84-2.416 2.005-2.651C89.174 57.194 96.299 49.766 98.884 40H77.5a2.5 2.5 0 1 1 0-5h22.294c.138-1.306.206-2.641.206-4v-3.5H84.5a2.5 2.5 0 1 1 0-5H100V15H82.5a2.5 2.5 0 1 1 0-5H100V2.5a2.5 2.5 0 0 1 2.5-2.5h10a2.5 2.5 0 0 1 2.5 2.5V10h17.5a2.5 2.5 0 1 1 0 5H115v7.5h14.5a2.5 2.5 0 1 1 0 5H115V31c0 1.37-.065 2.703-.196 4H137.5a2.5 2.5 0 1 1 0 5h-23.564c-.675 2.671-1.668 5.153-2.972 7.432-1.32 2.51-3.371 4.957-6.137 7.426A33.01 33.01 0 0 1 100 58.314zm-67.537 4.442c-5.861 9.938-18.581 16.265-29.825 17.14C1.211 80.007 0 78.852 0 77.419c0-1.291.995-2.333 2.28-2.465C9.304 74.23 15.783 70.151 20 63c3.846-6.521 5-20.359 5-26.147V30H2.476A2.475 2.475 0 0 1 0 27.524C0 26.108 1.108 25 2.476 25H25V2.476A2.475 2.475 0 0 1 27.476 0h10.056a2.474 2.474 0 0 1 2.475 2.467c.016 5.311.051 17.735.051 22.533h22.466A2.475 2.475 0 0 1 65 27.476C65 28.892 63.892 30 62.524 30H40.053c-.008 3.926-.025 7.268-.053 10.025.064 6.188 2.359 15.12 6.153 22.002 4.288 7.779 10.022 12.52 17.097 13.344 1.271.148 2.25 1.182 2.25 2.462a2.5 2.5 0 0 1-2.789 2.512c-8.868-1.001-15.918-6.799-20.937-15.904-1.983-3.598-3.588-7.672-4.738-11.712-1.2 3.482-2.74 6.918-4.573 10.027zM165 45v15h10V45h7.5a2.5 2.5 0 0 1 2.5 2.5v15a2.5 2.5 0 0 1-2.5 2.5h-25a2.5 2.5 0 0 1-2.5-2.5v-15a2.5 2.5 0 0 1 2.5-2.5h7.5zm0-35v15h10V10h7.496A2.504 2.504 0 0 1 185 12.504V27.5a2.5 2.5 0 0 1-2.5 2.5h-25a2.5 2.5 0 0 1-2.5-2.5v-15a2.5 2.5 0 0 1 2.5-2.5h7.5zm-54.929 51.486c-.748-1.1-.72-2.643.346-3.518 1.068-.876 2.714-.74 3.519.346 6.015 8.111 14.722 12.344 24.263 12.133a2.5 2.5 0 0 1 .11 4.998c-10.95.243-22.445-5.445-28.238-13.959z" fill="#ECF0F3"/><circle fill="#FF7043" cx="122" cy="57.068" r="7.919"/></g></svg>