<svg width="66" height="80" xmlns="http://www.w3.org/2000/svg"><g transform="translate(.03)" fill="none" fill-rule="evenodd"><path d="M25 58.314V70c0 3.095.687 4.424 2.916 4.843 1.198.225 2.084 1.243 2.084 2.462 0 1.54-1.336 2.714-2.834 2.513C19.466 78.79 15 73.44 15 65v-2.449c-3.699 1.077-7.789 1.83-12.255 2.242A2.512 2.512 0 0 1 0 62.299c0-1.395.84-2.416 2.005-2.651C14.174 57.194 21.299 49.766 23.884 40H2.5a2.5 2.5 0 1 1 0-5h22.294c.138-1.306.206-2.641.206-4v-3.5H9.5a2.5 2.5 0 1 1 0-5H25V15H7.5a2.5 2.5 0 1 1 0-5H25V2.5A2.5 2.5 0 0 1 27.5 0h10A2.5 2.5 0 0 1 40 2.5V10h17.5a2.5 2.5 0 1 1 0 5H40v7.5h14.5a2.5 2.5 0 1 1 0 5H40V31c0 1.37-.065 2.703-.196 4H62.5a2.5 2.5 0 1 1 0 5H38.936c-.675 2.671-1.668 5.153-2.972 7.432-1.32 2.51-3.371 4.957-6.137 7.426A33.01 33.01 0 0 1 25 58.314zm10.071 3.172c-.748-1.1-.72-2.643.346-3.518 1.068-.876 2.714-.74 3.519.346 6.015 8.111 14.722 12.344 24.263 12.133a2.5 2.5 0 0 1 .11 4.998C52.36 75.688 40.865 70 35.072 61.486z" fill="#ECF0F3"/><circle fill="#FF7043" cx="47" cy="57.068" r="7.919"/></g></svg>